<?xml version="1.0" standalone="no"?>
<!DOCTYPE svg PUBLIC "-//W3C//DTD SVG 20010904//EN"
 "http://www.w3.org/TR/2001/REC-SVG-20010904/DTD/svg10.dtd">
<svg version="1.0" xmlns="http://www.w3.org/2000/svg"
 width="700.000000pt" height="700.000000pt" viewBox="0 0 700.000000 700.000000"
 preserveAspectRatio="xMidYMid meet">
<metadata>
Created by potrace 1.14, written by Peter Selinger 2001-2017
</metadata>
<g transform="translate(0.000000,700.000000) scale(0.100000,-0.100000)"
fill="#000000" stroke="none">
<path d="M3319 6846 c-2 -2 -35 -7 -74 -11 -159 -15 -408 -78 -575 -145 -163
-64 -397 -201 -543 -317 -358 -284 -626 -681 -753 -1118 -10 -33 -19 -65 -20
-71 -1 -7 -9 -43 -17 -80 -9 -38 -18 -88 -22 -111 -3 -23 -8 -57 -11 -75 -15
-107 -17 -353 -17 -1778 l0 -1575 25 -55 c46 -102 118 -162 222 -185 55 -12
71 -12 131 -1 92 18 190 100 224 189 18 47 19 80 20 370 1 262 4 326 17 365
47 137 178 223 323 209 111 -10 202 -74 256 -182 19 -38 20 -65 25 -680 l5
-640 29 -59 c44 -90 132 -163 217 -182 29 -6 125 -6 157 0 84 17 180 98 221
185 l26 56 5 885 5 885 29 57 c73 148 252 213 399 145 70 -32 121 -83 156
-157 l26 -55 2 -580 c2 -319 4 -841 5 -1160 l3 -580 28 -56 c90 -185 316 -244
487 -127 59 40 88 77 116 147 l23 58 3 1004 3 1004 28 57 c32 65 90 120 157
150 63 28 178 28 240 1 49 -22 116 -81 144 -126 45 -73 46 -84 46 -823 l1
-700 29 -60 c44 -89 97 -140 181 -170 162 -58 353 42 400 209 9 32 12 510 12
1907 0 1661 -2 1970 -17 2045 -2 11 -7 40 -10 65 -39 282 -167 616 -332 865
-363 548 -923 901 -1574 990 -51 7 -455 17 -461 11z m-319 -1782 c210 -96 260
-373 96 -537 -83 -83 -230 -115 -343 -75 -97 35 -180 128 -207 232 -70 266
204 494 454 380z m1231 21 c82 -18 165 -84 208 -165 89 -166 27 -363 -142
-449 -59 -30 -76 -34 -146 -35 -71 -1 -85 3 -147 34 -125 64 -192 181 -182
319 15 203 204 341 409 296z"/>
</g>
</svg>
