<svg width="93" height="92" viewBox="0 0 93 92" fill="none" xmlns="http://www.w3.org/2000/svg">
<path d="M90.5 47.2083C90.5 43.9583 90.2083 40.8333 89.6667 37.8333H46.5V55.5833H71.1667C70.0833 61.2917 66.8333 66.125 61.9583 69.375V80.9167H76.8333C85.5 72.9167 90.5 61.1667 90.5 47.2083Z" fill="#4285F4"/>
<path d="M46.5 92C58.875 92 69.25 87.9167 76.8333 80.9167L61.9583 69.375C57.875 72.125 52.6667 73.7917 46.5 73.7917C34.5833 73.7917 24.4583 65.75 20.8333 54.9167H5.58334V66.75C13.125 81.7083 28.5833 92 46.5 92Z" fill="#34A853"/>
<path d="M20.8333 54.875C19.9167 52.125 19.375 49.2083 19.375 46.1667C19.375 43.125 19.9167 40.2083 20.8333 37.4583V25.625H5.58334C2.45834 31.7917 0.666672 38.75 0.666672 46.1667C0.666672 53.5833 2.45834 60.5417 5.58334 66.7084L17.4583 57.4583L20.8333 54.875Z" fill="#FBBC05"/>
<path d="M46.5 18.5833C53.25 18.5833 59.25 20.9167 64.0417 25.4167L77.1667 12.2917C69.2083 4.87501 58.875 0.333344 46.5 0.333344C28.5833 0.333344 13.125 10.625 5.58334 25.625L20.8333 37.4583C24.4583 26.625 34.5833 18.5833 46.5 18.5833Z" fill="#EA4335"/>
</svg>
